<svg xmlns="http://www.w3.org/2000/svg" width="94" height="24" viewBox="0 0 94 24">
    <g fill="none" fill-rule="evenodd">
        <path fill="#FFF" d="M0 0H360V893H0z" transform="translate(-133 -82)"/>
        <g>
            <path fill="#FFF" d="M0 0H360V48H0z" transform="translate(-133 -82) translate(0 70)"/>
            <g fill="#FF5A5C">
                <path d="M93.805 10.682c-.275-1.096-.831-2.088-1.614-2.865C91.016 6.646 89.401 6 87.642 6c-2.055 0-4.122.884-5.669 2.425-1.446 1.44-2.305 3.292-2.421 5.213-.117 1.922.527 3.684 1.81 4.962 1.175 1.171 2.79 1.816 4.548 1.816 1.995 0 4.017-.84 5.547-2.306.205-.194.295-.48.237-.757-.058-.276-.253-.504-.52-.602l-2.584-.964c-.296-.109-.633-.042-.861.178-.857.823-1.836 1.129-2.572.798-1.203-.544-1.457-2.58-.565-4.541.725-1.591 2.024-2.704 3.16-2.704.227 0 .444.046.644.136.638.288.903.924 1.013 1.406.084.375.418.641.804.641h2.792c.254 0 .493-.117.65-.315.155-.2.212-.459.15-.704M56.37 14.004c-.724 1.591-2.023 2.704-3.159 2.704-.229 0-.444-.046-.643-.135-.728-.329-.967-1.131-1.045-1.58-.154-.89.016-1.943.48-2.962.725-1.591 2.024-2.702 3.158-2.703.23 0 .445.045.644.135 1.204.544 1.458 2.58.565 4.541m17.213 0c-.724 1.591-2.024 2.704-3.159 2.704-.228 0-.444-.046-.643-.135-.73-.329-.968-1.131-1.045-1.58-.154-.89.014-1.943.48-2.962.725-1.591 2.024-2.702 3.158-2.703.228 0 .445.045.644.135 1.204.544 1.457 2.58.565 4.541m-1.319-8.195c-2.054 0-4.12.885-5.668 2.425-1.737 1.73-2.63 4.118-2.39 6.383l-2.326 2.315c-.225.247-.622.31-.915.148-.306-.172-.452-.538-.348-.868l.674-2.117c.008-.025.015-.05.02-.075l3.767-11.75c.08-.25.035-.522-.12-.734-.156-.211-.403-.336-.665-.336h-3.12c-.358 0-.675.23-.785.571l-1.65 5.15v.002c-1.06-.725-2.338-1.108-3.697-1.108-2.051 0-4.113.882-5.658 2.42-1.296 1.29-2.136 2.956-2.366 4.69l-4.728 3.961c-.021.02-.043.039-.062.06-.23.237-.617.293-.903.134-.306-.172-.45-.538-.345-.873l.658-2.072c.01-.028.017-.057.023-.084l1.892-5.903 2.92-.001c.358 0 .676-.23.785-.571l.223-.696c.078-.25.034-.522-.12-.734-.155-.21-.403-.337-.665-.337h-2.393l1.135-3.539c.08-.25.035-.522-.12-.734-.156-.211-.403-.336-.666-.336h-3.12c-.358 0-.675.23-.784.571L39.454 5.81h-3.46c-.357 0-.675.232-.785.573l-.222.697c-.08.248-.035.52.12.732.155.211.402.336.665.336h2.933l-2.368 7.395c-.112.358-.169.725-.169 1.091 0 1.961 1.544 3.56 3.497 3.64l.11.007.063.001c.052.001.104.003.163.003h.002l.305-.003c1.018 0 2.009-.29 2.874-.846l.152-.1c.723-.499 1.105-.791 2.557-1.964l1.451-1.213c.313.86.793 1.618 1.43 2.251 1.173 1.169 2.786 1.812 4.54 1.812 1.243 0 2.508-.323 3.657-.933.644.6 1.479.95 2.336.985l.11.007.064.001c.05.001.103.003.163.003h.004l.303-.003c1.017 0 2.01-.29 2.878-.85l.146-.097c.716-.49 1.445-1.158 2.166-1.98.244.384.529.74.846 1.055 1.175 1.171 2.79 1.817 4.549 1.817 2.055 0 4.12-.884 5.669-2.425 1.446-1.44 2.306-3.293 2.422-5.214.115-1.921-.529-3.683-1.81-4.961-1.177-1.171-2.793-1.817-4.55-1.817M28.313 8.744c.227 0 .445.045.643.134.726.328 1.137 1.22 1.096 2.384l-4.808.002c.745-1.508 1.979-2.52 3.07-2.52m-.112-3.519c-2.054 0-4.121.885-5.668 2.425-1.447 1.44-2.307 3.29-2.423 5.213-.114 1.923.528 3.684 1.812 4.961 1.175 1.171 2.79 1.817 4.549 1.817 1.994 0 4.017-.84 5.546-2.305.205-.195.293-.482.236-.758-.057-.276-.252-.504-.518-.602l-2.586-.964c-.297-.11-.632-.043-.86.178-.858.823-1.835 1.13-2.571.798-.728-.329-1.138-1.22-1.097-2.388h5.82l.053.002h3.135c.397 0 .737-.28.81-.668.428-2.25-.185-4.398-1.688-5.892-1.176-1.172-2.792-1.817-4.55-1.817M9.702 13.927c-.17-.87.019-1.895.532-2.89.804-1.552 2.243-2.637 3.501-2.637.253 0 .494.044.713.132 1.336.53 1.617 2.517.627 4.43-.803 1.553-2.242 2.638-3.501 2.638-.253 0-.494-.044-.714-.132-.806-.321-1.072-1.103-1.158-1.541m3.279-9.12c-1.246 0-2.512.326-3.661.947-.63-.572-1.443-.906-2.278-.943l-.101-.005-.066-.001c-.053-.002-.115-.008-.16-.002H6.41c-1.008 0-1.99.29-2.84.839l-.087.056-.06.04c-.667.46-1.342 1.07-2.01 1.812-.299.334-.273.848.06 1.15l.793.717c.162.146.378.225.595.21.218-.012.424-.112.567-.277l1.06-1.209c.222-.253.62-.323.916-.156.303.17.447.534.342.864l-.596 1.884c-.009.024-.015.048-.02.073L1.267 22.938c-.078.249-.033.518.12.728.153.21.398.334.658.334h3.09c.355 0 .67-.23.778-.567l1.717-5.4c1.043.709 2.302 1.083 3.637 1.083 2.031 0 4.074-.876 5.603-2.403 1.431-1.43 2.283-3.268 2.398-5.178.114-1.91-.522-3.66-1.794-4.929-1.162-1.16-2.757-1.8-4.494-1.8" transform="translate(-133 -82) translate(0 70) translate(133 12)"/>
            </g>
        </g>
    </g>
</svg>
